<svg width="58" height="26" viewBox="0 0 58 26" fill="none" xmlns="http://www.w3.org/2000/svg">
<path d="M4.26379 19.5V12.75H9.51379" stroke="#121212" stroke-opacity="0.7" stroke-width="2" stroke-linecap="round" stroke-linejoin="round"/>
<path d="M21.5138 19.5H2.76379" stroke="#121212" stroke-opacity="0.7" stroke-width="2" stroke-linecap="round" stroke-linejoin="round"/>
<path d="M9.51379 19.5V8.25H14.7638" stroke="#121212" stroke-opacity="0.7" stroke-width="2" stroke-linecap="round" stroke-linejoin="round"/>
<path d="M20.0138 3.75H14.7638V19.5H20.0138V3.75Z" stroke="#121212" stroke-opacity="0.7" stroke-width="2" stroke-linecap="round" stroke-linejoin="round"/>
<path d="M45.1388 20.75C46.6388 20.75 49.1232 20.7312 51.9732 19.0812C54.8232 17.4312 55.7513 15.3781 56.0419 14.3187C56.0687 14.2233 56.076 14.1235 56.0635 14.0252C56.051 13.9268 56.0189 13.832 55.969 13.7464C55.9192 13.6607 55.8527 13.5859 55.7734 13.5264C55.6941 13.4669 55.6037 13.4239 55.5075 13.4C54.8232 13.2219 53.6232 13.0625 52.0857 13.4281" stroke="#121212" stroke-opacity="0.7" stroke-width="2" stroke-linecap="round" stroke-linejoin="round"/>
<path d="M38.1919 13.4189C36.6544 13.0627 35.4544 13.222 34.77 13.4002C34.6738 13.4241 34.5834 13.4671 34.5042 13.5266C34.4249 13.5861 34.3584 13.6609 34.3085 13.7465C34.2587 13.8322 34.2266 13.927 34.2141 14.0253C34.2015 14.1237 34.2089 14.2235 34.2356 14.3189C34.5263 15.3783 35.4544 17.4408 38.3044 19.0814C41.1544 20.722 43.6388 20.7502 45.1388 20.7502" stroke="#121212" stroke-opacity="0.7" stroke-width="2" stroke-linecap="round" stroke-linejoin="round"/>
<path d="M45.1388 20.75C45.1388 20.75 48.8888 18.7063 48.8888 13.25C48.8888 8.97504 46.5825 6.80004 45.5888 6.05004C45.4584 5.95409 45.3007 5.90234 45.1388 5.90234C44.9769 5.90234 44.8192 5.95409 44.6888 6.05004C43.695 6.80004 41.3888 8.97504 41.3888 13.25C41.3888 18.7063 45.1388 20.75 45.1388 20.75Z" stroke="#121212" stroke-opacity="0.7" stroke-width="2" stroke-linecap="round" stroke-linejoin="round"/>
<path d="M45.1388 20.7497C46.2638 20.506 49.2919 18.7997 51.1107 15.6497C52.9294 12.4997 52.4794 9.99661 52.1232 8.89974C52.0687 8.72333 51.9495 8.57406 51.7895 8.4819C51.6295 8.38974 51.4406 8.3615 51.2607 8.40286C50.1843 8.64394 49.1773 9.12817 48.3169 9.81849" stroke="#121212" stroke-opacity="0.7" stroke-width="2" stroke-linecap="round" stroke-linejoin="round"/>
<path d="M41.9607 9.81849C41.1003 9.12817 40.0933 8.64394 39.0169 8.40286C38.837 8.3615 38.6481 8.38974 38.4881 8.4819C38.3281 8.57406 38.2089 8.72333 38.1544 8.89974C37.7982 9.99661 37.3482 12.5091 39.1669 15.6497C40.9857 18.7904 44.0138 20.506 45.1388 20.7497" stroke="#121212" stroke-opacity="0.7" stroke-width="2" stroke-linecap="round" stroke-linejoin="round"/>
</svg>
