<svg width="13" height="11" viewBox="0 0 13 11" fill="none" xmlns="http://www.w3.org/2000/svg">
<path d="M6.66823 8.99992H2.94911C2.90434 9.00048 2.8599 8.99256 2.81841 8.97664C2.77693 8.96071 2.73924 8.9371 2.70758 8.9072C2.67592 8.87729 2.65092 8.8417 2.63405 8.80252C2.61719 8.76334 2.60881 8.72137 2.6094 8.67909V5.16659C2.6094 4.14992 3.03703 3.1749 3.79821 2.45601C4.55938 1.73712 5.59176 1.33325 6.66823 1.33325V1.33325C7.20124 1.33325 7.72903 1.4324 8.22147 1.62505C8.71391 1.81769 9.16135 2.10005 9.53825 2.45601C9.91515 2.81197 10.2141 3.23455 10.4181 3.69963C10.6221 4.16471 10.7271 4.66318 10.7271 5.16659V5.16659C10.7271 5.66999 10.6221 6.16846 10.4181 6.63354C10.2141 7.09862 9.91515 7.5212 9.53825 7.87716C9.16135 8.23312 8.71391 8.51548 8.22147 8.70812C7.72903 8.90077 7.20124 8.99992 6.66823 8.99992V8.99992Z" stroke="white" stroke-width="2" stroke-linecap="round" stroke-linejoin="round"/>
<path d="M6.66821 5.83325C6.96059 5.83325 7.19762 5.60939 7.19762 5.33325C7.19762 5.05711 6.96059 4.83325 6.66821 4.83325C6.37582 4.83325 6.13879 5.05711 6.13879 5.33325C6.13879 5.60939 6.37582 5.83325 6.66821 5.83325Z" fill="white"/>
<path d="M4.55053 5.83325C4.84292 5.83325 5.07994 5.60939 5.07994 5.33325C5.07994 5.05711 4.84292 4.83325 4.55053 4.83325C4.25814 4.83325 4.02112 5.05711 4.02112 5.33325C4.02112 5.60939 4.25814 5.83325 4.55053 5.83325Z" fill="white"/>
<path d="M8.78588 5.83325C9.07827 5.83325 9.31529 5.60939 9.31529 5.33325C9.31529 5.05711 9.07827 4.83325 8.78588 4.83325C8.4935 4.83325 8.25647 5.05711 8.25647 5.33325C8.25647 5.60939 8.4935 5.83325 8.78588 5.83325Z" fill="white"/>
</svg>
