<svg width="25" height="24" viewBox="0 0 25 24" fill="none" xmlns="http://www.w3.org/2000/svg">
<path d="M4.63879 3.75L19.6388 20.25" stroke="#121212" stroke-opacity="0.35" stroke-width="2" stroke-linecap="round" stroke-linejoin="round"/>
<path d="M14.6606 14.7749C13.9724 15.4053 13.0721 15.7534 12.1388 15.7499C11.3819 15.7498 10.6427 15.5207 10.0185 15.0926C9.39428 14.6646 8.91418 14.0577 8.64132 13.3517C8.36846 12.6458 8.31562 11.8737 8.48974 11.1372C8.66386 10.4006 9.0568 9.73393 9.61689 9.22485" stroke="#121212" stroke-opacity="0.35" stroke-width="2" stroke-linecap="round" stroke-linejoin="round"/>
<path d="M7.07629 6.4314C3.25129 8.36265 1.63879 12.0001 1.63879 12.0001C1.63879 12.0001 4.63879 18.7501 12.1388 18.7501C13.8962 18.7645 15.6317 18.3595 17.2013 17.5689" stroke="#121212" stroke-opacity="0.35" stroke-width="2" stroke-linecap="round" stroke-linejoin="round"/>
<path d="M19.695 15.8531C21.7387 14.025 22.6387 12 22.6387 12C22.6387 12 19.6387 5.25002 12.1387 5.25002C11.4885 5.24874 10.8394 5.30205 10.1981 5.4094" stroke="#121212" stroke-opacity="0.35" stroke-width="2" stroke-linecap="round" stroke-linejoin="round"/>
<path d="M12.8419 8.31543C13.6394 8.46653 14.3661 8.87293 14.9123 9.47329C15.4586 10.0736 15.7947 10.8354 15.87 11.6436" stroke="#121212" stroke-opacity="0.35" stroke-width="2" stroke-linecap="round" stroke-linejoin="round"/>
</svg>
