<svg width="25" height="24" viewBox="0 0 25 24" fill="none" xmlns="http://www.w3.org/2000/svg">
<path d="M12.8447 16.5C15.33 16.5 17.3447 14.4853 17.3447 12C17.3447 9.51472 15.33 7.5 12.8447 7.5C10.3594 7.5 8.34473 9.51472 8.34473 12C8.34473 14.4853 10.3594 16.5 12.8447 16.5Z" stroke="black" stroke-width="2" stroke-linecap="round" stroke-linejoin="round"/>
<path d="M18.0666 6.10327C18.3041 6.32202 18.5291 6.54702 18.7416 6.77827L21.301 7.1439C21.718 7.86812 22.0394 8.64332 22.2572 9.45015L20.701 11.522C20.701 11.522 20.7291 12.1595 20.701 12.4783L22.2572 14.5501C22.0405 15.3573 21.719 16.1326 21.301 16.8564L18.7416 17.222C18.7416 17.222 18.301 17.6814 18.0666 17.897L17.701 20.4564C16.9768 20.8734 16.2016 21.1948 15.3948 21.4126L13.3229 19.8564C13.0047 19.8845 12.6848 19.8845 12.3666 19.8564L10.2948 21.4126C9.48758 21.1958 8.71225 20.8744 7.9885 20.4564L7.62288 17.897C7.39163 17.6783 7.16663 17.4533 6.94788 17.222L4.3885 16.8564C3.97148 16.1322 3.65006 15.357 3.43225 14.5501L4.9885 12.4783C4.9885 12.4783 4.96038 11.8408 4.9885 11.522L3.43225 9.45015C3.64905 8.64298 3.97053 7.86765 4.3885 7.1439L6.94788 6.77827C7.16663 6.54702 7.39163 6.32202 7.62288 6.10327L7.9885 3.5439C8.71273 3.12688 9.48793 2.80545 10.2948 2.58765L12.3666 4.1439C12.6848 4.11577 13.0047 4.11577 13.3229 4.1439L15.3948 2.58765C16.2019 2.80444 16.9772 3.12592 17.701 3.5439L18.0666 6.10327Z" stroke="black" stroke-width="2" stroke-linecap="round" stroke-linejoin="round"/>
</svg>
