<svg width="103" height="102" viewBox="0 0 103 102" fill="none" xmlns="http://www.w3.org/2000/svg">
<rect x="23.8447" y="23" width="56" height="56" rx="7" stroke="#064420" stroke-width="2"/>
<path fill-rule="evenodd" clip-rule="evenodd" d="M39.8447 44.3933C40.4391 44.9944 41.2315 45.5955 42.024 46.1966C42.2221 46.397 44.0051 47.7996 44.2032 48C44.5994 46.5974 45.3919 45.5955 46.1843 44.794C46.9768 43.9926 47.9674 43.1911 49.156 42.7903C51.7315 41.7885 54.7032 42.3896 56.6843 43.9926C56.8825 44.1929 56.8825 44.1929 57.0806 44.3933L60.8447 40.5862C60.6466 40.3859 60.0523 39.7847 59.656 39.5844C54.9013 35.9777 48.1655 36.178 43.4108 39.9851C42.6183 40.5862 42.024 41.1873 41.4296 41.9888C41.0334 42.3896 40.0428 43.7922 39.8447 44.3933Z" fill="#E43E2B"/>
<path fill-rule="evenodd" clip-rule="evenodd" d="M39.8447 57.4C39.8447 58 40.8447 59.4 41.2447 60C43.0447 62.2 45.6447 63.8 48.6447 64.6C51.8447 65.4 55.8447 65 58.6447 63.4C59.0447 63.2 60.6447 62.2 60.8447 61.8L58.2447 59.6C58.0447 59.6 57.8447 59.4 57.6447 59.2L57.4447 59C57.2447 59 57.2447 58.8 57.0447 58.8C56.8447 58.6 56.8447 58.4 56.4447 58.4C56.2447 58.6 56.0447 58.8 55.6447 58.8C53.0447 60.2 49.6447 60 47.2447 58.2C46.6447 57.6 46.6447 57.6 46.0447 57C45.6447 56.8 45.2447 56.2 45.0447 55.8C44.6447 55.2 44.2447 54.2 44.2447 54C43.4447 54.6 42.6447 55.2 42.0447 55.8C41.6447 56 40.0447 57.4 39.8447 57.4Z" fill="#2BA24C"/>
<path fill-rule="evenodd" clip-rule="evenodd" d="M56.375 58.6C56.769 58.6 56.769 58.8 56.9659 59C57.1629 59 57.1629 59.2 57.3599 59.2L57.5568 59.4C57.7538 59.6 57.9508 59.8 58.1478 59.8L60.7084 62C61.2993 61.6 62.4811 60.2 62.6781 59.6C63.269 58.8 63.6629 57.8 64.0568 56.6C64.4508 55.6 64.6478 54.4 64.8447 53C64.8447 52.4 64.8447 49.6 64.4508 49H51.8447V54.4H59.1326C59.3296 55 58.5417 56.4 58.1478 56.8C57.7538 57.4 57.3599 57.8 56.9659 58.2C56.769 58.4 56.572 58.6 56.375 58.6Z" fill="#3C7CED"/>
<path fill-rule="evenodd" clip-rule="evenodd" d="M39.3702 57C39.5735 57 41.2007 55.623 41.6074 55.4262C42.2176 54.8361 43.0312 54.2459 43.8447 53.6557C43.6413 53.0656 43.4379 52.6721 43.4379 51.0984C43.4379 50.3115 43.6413 49.1311 43.8447 48.541C43.6413 48.3443 41.8108 46.9672 41.6074 46.7705C40.7939 46.1803 39.9803 45.5902 39.3702 45C38.9634 45.3934 38.3532 47.1639 38.1498 47.7541C37.743 49.918 37.743 52.2787 38.1498 54.4426C38.3532 55.0328 38.9634 56.8033 39.3702 57Z" fill="#F0B401"/>
</svg>
