<svg width="33" height="32" viewBox="0 0 33 32" fill="none" xmlns="http://www.w3.org/2000/svg">
<path d="M13.3888 17H18.8888" stroke="white" stroke-width="2" stroke-linecap="round" stroke-linejoin="round"/>
<path d="M16.1388 14.25V19.75" stroke="white" stroke-width="2" stroke-linecap="round" stroke-linejoin="round"/>
<path d="M26.1388 26H6.13879C5.60836 26 5.09965 25.7893 4.72458 25.4142C4.34951 25.0391 4.13879 24.5304 4.13879 24V10C4.13879 9.46957 4.34951 8.96086 4.72458 8.58579C5.09965 8.21071 5.60836 8 6.13879 8H10.1388L12.1388 5H20.1388L22.1388 8H26.1388C26.6692 8 27.1779 8.21071 27.553 8.58579C27.9281 8.96086 28.1388 9.46957 28.1388 10V24C28.1388 24.5304 27.9281 25.0391 27.553 25.4142C27.1779 25.7893 26.6692 26 26.1388 26Z" stroke="white" stroke-width="2" stroke-linecap="round" stroke-linejoin="round"/>
<path d="M16.1388 23C19.4525 23 22.1388 20.3137 22.1388 17C22.1388 13.6863 19.4525 11 16.1388 11C12.8251 11 10.1388 13.6863 10.1388 17C10.1388 20.3137 12.8251 23 16.1388 23Z" stroke="white" stroke-width="2" stroke-linecap="round" stroke-linejoin="round"/>
</svg>
