<svg width="20" height="24" viewBox="0 0 20 24" fill="none" xmlns="http://www.w3.org/2000/svg">
<path d="M17.0154 11.3436L3.92247 2.47487C3.81219 2.40118 3.68596 2.36987 3.56059 2.38511C3.43523 2.40034 3.31667 2.46139 3.22071 2.56014C3.12475 2.65889 3.05594 2.79064 3.02343 2.93786C2.99093 3.08508 2.99627 3.24079 3.03876 3.38424L5.50385 11.7467C5.55816 11.9091 5.55816 12.0906 5.50385 12.253L3.03876 20.6155C2.99627 20.7589 2.99093 20.9146 3.02343 21.0619C3.05594 21.2091 3.12475 21.3408 3.22071 21.4396C3.31667 21.5383 3.43523 21.5994 3.56059 21.6146C3.68596 21.6299 3.81219 21.5986 3.92247 21.5249L17.0154 12.6561C17.1123 12.5913 17.1931 12.4962 17.2494 12.3808C17.3056 12.2654 17.3353 12.1338 17.3353 11.9999C17.3353 11.8659 17.3056 11.7344 17.2494 11.619C17.1931 11.5036 17.1123 11.4085 17.0154 11.3436V11.3436Z" stroke="black" stroke-opacity="0.7" stroke-width="2" stroke-linecap="round" stroke-linejoin="round"/>
<path d="M5.5813 12H10.5425" stroke="black" stroke-opacity="0.7" stroke-width="2" stroke-linecap="round" stroke-linejoin="round"/>
</svg>
