<svg width="25" height="24" viewBox="0 0 25 24" fill="none" xmlns="http://www.w3.org/2000/svg">
<path d="M12.8447 21C17.8153 21 21.8447 16.9706 21.8447 12C21.8447 7.02944 17.8153 3 12.8447 3C7.87416 3 3.84473 7.02944 3.84473 12C3.84473 16.9706 7.87416 21 12.8447 21Z" stroke="black" stroke-width="2" stroke-linecap="round" stroke-linejoin="round"/>
<path d="M12.8447 18C13.466 18 13.9697 17.4963 13.9697 16.875C13.9697 16.2537 13.466 15.75 12.8447 15.75C12.2234 15.75 11.7197 16.2537 11.7197 16.875C11.7197 17.4963 12.2234 18 12.8447 18Z" fill="black"/>
<path d="M12.8447 13.5V12.75C13.3639 12.75 13.8714 12.596 14.3031 12.3076C14.7348 12.0192 15.0712 11.6092 15.2699 11.1295C15.4686 10.6499 15.5206 10.1221 15.4193 9.61289C15.318 9.10369 15.068 8.63596 14.7009 8.26885C14.3338 7.90173 13.866 7.65173 13.3568 7.55044C12.8476 7.44915 12.3198 7.50114 11.8402 7.69982C11.3605 7.8985 10.9506 8.23495 10.6621 8.66663C10.3737 9.09831 10.2197 9.60583 10.2197 10.125" stroke="black" stroke-width="2" stroke-linecap="round" stroke-linejoin="round"/>
</svg>
