<svg width="25" height="24" viewBox="0 0 25 24" fill="none" xmlns="http://www.w3.org/2000/svg">
<path d="M17.3888 17.25H6.68254L4.06692 2.86875C4.03632 2.69653 3.94648 2.54042 3.81294 2.42743C3.67941 2.31444 3.51058 2.25168 3.33567 2.25H1.63879" stroke="#121212" stroke-opacity="0.8" stroke-width="2" stroke-linecap="round" stroke-linejoin="round"/>
<path d="M7.63879 21C8.67433 21 9.51379 20.1605 9.51379 19.125C9.51379 18.0895 8.67433 17.25 7.63879 17.25C6.60326 17.25 5.76379 18.0895 5.76379 19.125C5.76379 20.1605 6.60326 21 7.63879 21Z" stroke="#121212" stroke-opacity="0.8" stroke-width="2" stroke-linecap="round" stroke-linejoin="round"/>
<path d="M17.3888 21C18.4243 21 19.2638 20.1605 19.2638 19.125C19.2638 18.0895 18.4243 17.25 17.3888 17.25C16.3533 17.25 15.5138 18.0895 15.5138 19.125C15.5138 20.1605 16.3533 21 17.3888 21Z" stroke="#121212" stroke-opacity="0.8" stroke-width="2" stroke-linecap="round" stroke-linejoin="round"/>
<path d="M5.99817 13.5H17.7732C18.1238 13.5011 18.4635 13.3785 18.7327 13.1539C19.0019 12.9293 19.1833 12.617 19.245 12.2719L20.3888 6H4.63879" stroke="#121212" stroke-opacity="0.8" stroke-width="2" stroke-linecap="round" stroke-linejoin="round"/>
</svg>
