<svg width="25" height="24" viewBox="0 0 25 24" fill="none" xmlns="http://www.w3.org/2000/svg">
<path d="M12.8447 21C17.8153 21 21.8447 16.9706 21.8447 12C21.8447 7.02944 17.8153 3 12.8447 3C7.87416 3 3.84473 7.02944 3.84473 12C3.84473 16.9706 7.87416 21 12.8447 21Z" stroke="#121212" stroke-opacity="0.7" stroke-width="2" stroke-linecap="round" stroke-linejoin="round"/>
<path d="M12.8447 15C14.9158 15 16.5947 13.3211 16.5947 11.25C16.5947 9.17893 14.9158 7.5 12.8447 7.5C10.7737 7.5 9.09473 9.17893 9.09473 11.25C9.09473 13.3211 10.7737 15 12.8447 15Z" stroke="#121212" stroke-opacity="0.7" stroke-width="2" stroke-linecap="round" stroke-linejoin="round"/>
<path d="M6.82593 18.6938C7.39022 17.5824 8.25126 16.6488 9.31362 15.9968C10.376 15.3447 11.5982 14.9995 12.8447 14.9995C14.0912 14.9995 15.3134 15.3447 16.3757 15.9968C17.4381 16.6488 18.2991 17.5824 18.8634 18.6938" stroke="#121212" stroke-opacity="0.7" stroke-width="2" stroke-linecap="round" stroke-linejoin="round"/>
</svg>
